<svg width="48" height="36" viewBox="0 0 48 36" fill="none" xmlns="http://www.w3.org/2000/svg">
<path d="M15.9105 15.3827C16.2798 14.2405 16.8881 13.1921 17.6908 12.3036C17.8266 12.1534 18.0395 12.0998 18.2302 12.168L20.1485 12.8539C20.6686 13.0398 21.2408 12.7688 21.4267 12.2488C21.445 12.1976 21.459 12.1451 21.4688 12.0917L21.8342 10.0857C21.8706 9.88627 22.0237 9.7285 22.222 9.6863C22.8022 9.5628 23.3971 9.5 23.9998 9.5C24.6021 9.5 25.1966 9.56273 25.7765 9.68607C25.9747 9.72824 26.1279 9.88591 26.1643 10.0853L26.5308 12.0916C26.6298 12.635 27.1506 12.9951 27.6939 12.896C27.7474 12.8863 27.7999 12.8722 27.851 12.8539L29.7693 12.168C29.96 12.0998 30.173 12.1534 30.3087 12.3036C31.1114 13.1921 31.7197 14.2405 32.089 15.3827C32.1513 15.5753 32.0913 15.7866 31.9369 15.9176L30.3821 17.2377C29.9611 17.5952 29.9096 18.2263 30.267 18.6473C30.3022 18.6887 30.3407 18.7271 30.382 18.7623L31.9369 20.0824C32.0913 20.2134 32.1513 20.4247 32.089 20.6173C31.7197 21.7595 31.1114 22.8079 30.3087 23.6964C30.173 23.8466 29.96 23.9002 29.7693 23.832L27.8511 23.1461C27.331 22.9602 26.7587 23.2312 26.5729 23.7512C26.5546 23.8024 26.5405 23.8549 26.5307 23.9085L26.1643 25.9147C26.1279 26.1141 25.9747 26.2718 25.7765 26.3139C25.1966 26.4373 24.6021 26.5 23.9998 26.5C23.3971 26.5 22.8022 26.4372 22.222 26.3137C22.0237 26.2715 21.8706 26.1137 21.8342 25.9143L21.4688 23.9084C21.3697 23.365 20.8489 23.0049 20.3056 23.104C20.2522 23.1137 20.1996 23.1278 20.1486 23.1461L18.2302 23.832C18.0395 23.9002 17.8266 23.8466 17.6908 23.6964C16.8881 22.8079 16.2798 21.7595 15.9105 20.6173C15.8482 20.4247 15.9083 20.2134 16.0626 20.0824L17.6175 18.7623C18.0385 18.4048 18.09 17.7737 17.7325 17.3527C17.6973 17.3113 17.6589 17.2729 17.6175 17.2377L16.0626 15.9176C15.9083 15.7866 15.8482 15.5753 15.9105 15.3827ZM16.9711 15.3771L18.2647 16.4755C18.3475 16.5458 18.4245 16.6227 18.4948 16.7055C19.2097 17.5475 19.1067 18.8096 18.2647 19.5246L16.9711 20.6229C17.2631 21.4051 17.6846 22.1322 18.216 22.7751L19.812 22.2044C19.9142 22.1679 20.0193 22.1397 20.1262 22.1202C21.2128 21.922 22.2544 22.6423 22.4526 23.729L22.7565 25.3975C23.1644 25.4655 23.5798 25.5 23.9998 25.5C24.4195 25.5 24.8346 25.4656 25.2422 25.3976L25.547 23.7289C25.5665 23.6221 25.5946 23.517 25.6312 23.4147C26.0029 22.3746 27.1474 21.8327 28.1877 22.2044L29.7835 22.7751C30.315 22.1322 30.7364 21.4051 31.0285 20.6229L29.7348 19.5245C29.652 19.4542 29.5751 19.3773 29.5048 19.2945C28.7898 18.4525 28.8928 17.1904 29.7348 16.4754L31.0285 15.3771C30.7364 14.5949 30.315 13.8678 29.7835 13.2249L28.1876 13.7956C28.0853 13.8321 27.9802 13.8603 27.8734 13.8798C26.7867 14.078 25.7452 13.3577 25.547 12.2712L25.2422 10.6023C24.8346 10.5344 24.4195 10.5 23.9998 10.5C23.5798 10.5 23.1644 10.5345 22.7565 10.6025L22.4525 12.2711C22.4331 12.3779 22.4049 12.483 22.3684 12.5853C21.9966 13.6254 20.8521 14.1673 19.8119 13.7956L18.216 13.2249C17.6846 13.8678 17.2631 14.5949 16.9711 15.3771ZM21.4998 18C21.4998 16.6193 22.6191 15.5 23.9998 15.5C25.3805 15.5 26.4998 16.6193 26.4998 18C26.4998 19.3807 25.3805 20.5 23.9998 20.5C22.6191 20.5 21.4998 19.3807 21.4998 18ZM22.4998 18C22.4998 18.8284 23.1713 19.5 23.9998 19.5C24.8282 19.5 25.4998 18.8284 25.4998 18C25.4998 17.1716 24.8282 16.5 23.9998 16.5C23.1713 16.5 22.4998 17.1716 22.4998 18Z" fill="#605E5C"/>
</svg>
