<?xml version="1.0" encoding="UTF-8" standalone="no"?>
<svg
   width="16.227053"
   height="17"
   viewBox="0 0 16.227053 17"
   fill="none"
   version="1.1"
   id="svg1"
   sodipodi:docname="settings-icon.svg"
   inkscape:version="1.3 (0e150ed6c4, 2023-07-21)"
   xmlns:inkscape="http://www.inkscape.org/namespaces/inkscape"
   xmlns:sodipodi="http://sodipodi.sourceforge.net/DTD/sodipodi-0.dtd"
   xmlns="http://www.w3.org/2000/svg"
   xmlns:svg="http://www.w3.org/2000/svg">
  <defs
     id="defs1" />
  <sodipodi:namedview
     id="namedview1"
     pagecolor="#ffffff"
     bordercolor="#000000"
     borderopacity="0.25"
     inkscape:showpageshadow="2"
     inkscape:pageopacity="0.0"
     inkscape:pagecheckerboard="0"
     inkscape:deskcolor="#d1d1d1"
     inkscape:zoom="50.527778"
     inkscape:cx="8.1143485"
     inkscape:cy="2.1671248"
     inkscape:window-width="3840"
     inkscape:window-height="2054"
     inkscape:window-x="-11"
     inkscape:window-y="-11"
     inkscape:window-maximized="1"
     inkscape:current-layer="svg1" />
  <path
     d="M 0.02426896,5.8827 C 0.39356896,4.7405 1.001869,3.6921 1.804569,2.8036 c 0.1358,-0.1502 0.3487,-0.2038 0.5394,-0.1356 l 1.9183,0.6859 c 0.5201,0.1859 1.0923,-0.0851 1.2782,-0.6051 0.0183,-0.0512 0.0323,-0.1037 0.0421,-0.1571 l 0.3654,-2.006 c 0.0364,-0.19943 0.1895,-0.3572 0.3878,-0.3994 C 6.915969,0.0628 7.510869,0 8.113569,0 c 0.6023,0 1.1968,0.06273 1.7767,0.18607 0.1982,0.04217 0.3514,0.19984 0.3878,0.39923 l 0.3665,2.0063 c 0.099,0.5434 0.6198,0.9035 1.1631,0.8044 0.0535,-0.0097 0.106,-0.0238 0.1571,-0.0421 l 1.9183,-0.6859 c 0.1907,-0.0682 0.4037,-0.0146 0.5394,0.1356 0.8027,0.8885 1.411,1.9369 1.7803,3.0791 0.0623,0.1926 0.0023,0.4039 -0.1521,0.5349 l -1.5548,1.3201 c -0.421,0.3575 -0.4725,0.9886 -0.1151,1.4096 0.0352,0.0414 0.0737,0.0798 0.115,0.115 l 1.5549,1.3201 c 0.1544,0.131 0.2144,0.3423 0.1521,0.5349 -0.3693,1.1422 -0.9776,2.1906 -1.7803,3.0791 -0.1357,0.1502 -0.3487,0.2038 -0.5394,0.1356 l -1.9182,-0.6859 c -0.5201,-0.1859 -1.0924,0.0851 -1.2782,0.6051 -0.0183,0.0512 -0.0324,0.1037 -0.0422,0.1573 l -0.3664,2.0062 c -0.0364,0.1994 -0.1896,0.3571 -0.3878,0.3992 -0.5799,0.1234 -1.1744,0.1861 -1.7767,0.1861 -0.6027,0 -1.1976,-0.0628 -1.7778,-0.1863 -0.1983,-0.0422 -0.3514,-0.2 -0.3878,-0.3994 l -0.3654,-2.0059 c -0.0991,-0.5434 -0.6199,-0.9035 -1.1632,-0.8044 -0.0534,0.0097 -0.106,0.0238 -0.157,0.0421 l -1.9184,0.6859 c -0.1907,0.0682 -0.4036,0.0146 -0.5394,-0.1356 -0.8027,-0.8885 -1.41100004,-1.9369 -1.78030004,-3.0791 -0.0623,-0.1926 -0.0022,-0.4039 0.1521,-0.5349 L 1.731269,9.2623 c 0.421,-0.3575 0.4725,-0.9886 0.115,-1.4096 -0.0352,-0.0414 -0.0736,-0.0798 -0.115,-0.115 L 0.17636896,6.4176 c -0.1543,-0.131 -0.2144,-0.3423 -0.1521,-0.5349 z M 1.084869,5.8771 l 1.2936,1.0984 c 0.0828,0.0703 0.1598,0.1472 0.2301,0.23 0.7149,0.842 0.6119,2.1041 -0.2301,2.8191 l -1.2936,1.0983 c 0.292,0.7822 0.7135,1.5093 1.2449,2.1522 l 1.596,-0.5707 c 0.1022,-0.0365 0.2073,-0.0647 0.3142,-0.0842 1.0866,-0.1982 2.1282,0.5221 2.3264,1.6088 l 0.3039,1.6685 c 0.4079,0.068 0.8233,0.1025 1.2433,0.1025 0.4197,0 0.8348,-0.0344 1.2424,-0.1024 l 0.3048,-1.6687 c 0.0195,-0.1068 0.0476,-0.2119 0.0842,-0.3142 0.3717,-1.0401 1.5162,-1.582 2.5565,-1.2103 l 1.5958,0.5707 c 0.5315,-0.6429 0.9529,-1.37 1.245,-2.1522 l -1.2937,-1.0984 c -0.0828,-0.0703 -0.1597,-0.1472 -0.23,-0.23 -0.715,-0.842 -0.612,-2.1041 0.23,-2.8191 l 1.2937,-1.0983 c -0.2921,-0.7822 -0.7135,-1.5093 -1.245,-2.1522 l -1.5959,0.5707 c -0.1023,0.0365 -0.2074,0.0647 -0.3142,0.0842 -1.0867,0.1982 -2.1282,-0.5221 -2.3264,-1.6086 L 9.355969,1.1023 C 8.948369,1.0344 8.533269,1 8.113569,1 c -0.42,0 -0.8354,0.0345 -1.2433,0.1025 l -0.304,1.6686 c -0.0194,0.1068 -0.0476,0.2119 -0.0841,0.3142 -0.3718,1.0401 -1.5163,1.582 -2.5565,1.2103 l -1.5959,-0.5707 c -0.5314,0.6429 -0.9529,1.37 -1.2449,2.1522 z M 5.613569,8.5 c 0,-1.3807 1.1193,-2.5 2.5,-2.5 1.3807,0 2.5,1.1193 2.5,2.5 0,1.3807 -1.1193,2.5 -2.5,2.5 -1.3807,0 -2.5,-1.1193 -2.5,-2.5 z m 1,0 c 0,0.8284 0.6715,1.5 1.5,1.5 0.8284,0 1.5,-0.6716 1.5,-1.5 0,-0.8284 -0.6716,-1.5 -1.5,-1.5 -0.8285,0 -1.5,0.6716 -1.5,1.5 z"
     fill="#605e5c"
     id="path1" />
</svg>
