<svg id="Layer_1" data-name="Layer 1" xmlns="http://www.w3.org/2000/svg" viewBox="0 0 64 64"><defs><style>.cls-1{fill:#2bc7f4;}.cls-2{fill:#556a8a;}.cls-3{fill:#ff8c00;}</style></defs><title>VoC_Icon_GetStarted</title><path class="cls-1" d="M33.5,54.16c4.85-1.31,8.57-9,8.57-21.33,0-19.42-10.07-27-10.07-27s-10.07,7.82-10.07,27c0,12.31,3.72,20,8.57,21.33m1.38-33.53A26.14,26.14,0,0,1,27,20.19,28.84,28.84,0,0,1,32,10.43a28.48,28.48,0,0,1,5,9.72A27,27,0,0,1,31.88,20.63Z"/><path class="cls-2" d="M19.22,41.32c-3,0-5.44,2.08-5.44,4.65V56.2a1,1,0,0,0,1.59.81l7.57-5.6a1,1,0,0,0,.28-1.28,29.75,29.75,0,0,1-2.78-8.81Z"/><path class="cls-2" d="M44.78,41.32H43.56a29.75,29.75,0,0,1-2.78,8.81,1,1,0,0,0,.28,1.28L48.63,57a1,1,0,0,0,1.59-.81V46C50.22,43.4,47.78,41.32,44.78,41.32Z"/><path class="cls-3" d="M31.93,59.2c-8.08-16.09-.32-20.15.47-20.55C33.6,39.43,40.23,44.59,31.93,59.2Z"/></svg>